<mxfile host="app.diagrams.net" modified="2023-07-20T22:21:02.465Z" agent="Mozilla/5.0 (Windows NT 10.0; Win64; x64) AppleWebKit/537.36 (KHTML, like Gecko) Chrome/114.0.0.0 Safari/537.36" etag="0vYA-PfDFXJVrrivJUFP" version="21.6.5" type="device">
  <diagram name="Página-1" id="uBZtfREA8ehdyU97V9X2">
    <mxGraphModel dx="1301" dy="763" grid="1" gridSize="10" guides="1" tooltips="1" connect="1" arrows="1" fold="1" page="1" pageScale="1" pageWidth="827" pageHeight="1169" math="0" shadow="0">
      <root>
        <mxCell id="0" />
        <mxCell id="1" parent="0" />
        <mxCell id="085ajstwrfnwcMNNs1sN-1" value="&lt;p style=&quot;margin:0px;margin-top:4px;text-align:center;text-decoration:underline;&quot;&gt;&lt;b&gt;Motos&lt;/b&gt;&lt;/p&gt;&lt;hr&gt;&lt;p style=&quot;margin:0px;margin-left:8px;&quot;&gt;IdMoto | INT, PK&lt;/p&gt;&lt;p style=&quot;margin:0px;margin-left:8px;&quot;&gt;NomeMoto | Varchar NOT NULL&lt;/p&gt;&lt;p style=&quot;margin:0px;margin-left:8px;&quot;&gt;MarcaMoto | Varchar NOT NULL&lt;/p&gt;&lt;p style=&quot;margin:0px;margin-left:8px;&quot;&gt;Preço | Number NOT NULL&lt;/p&gt;&lt;p style=&quot;margin:0px;margin-left:8px;&quot;&gt;Cilindradas | INT NOT NULL&lt;/p&gt;&lt;p style=&quot;margin:0px;margin-left:8px;&quot;&gt;Potencia (Gasolina) | Number&lt;/p&gt;&lt;p style=&quot;margin:0px;margin-left:8px;&quot;&gt;Potencia (Etanol) | Number&lt;/p&gt;&lt;p style=&quot;margin:0px;margin-left:8px;&quot;&gt;Torque (Gasolina) | Number&lt;/p&gt;&lt;p style=&quot;margin:0px;margin-left:8px;&quot;&gt;Torque (Etanol) | Number&lt;/p&gt;&lt;p style=&quot;margin:0px;margin-left:8px;&quot;&gt;Cilindros | INT NOT NULL&lt;/p&gt;&lt;p style=&quot;margin:0px;margin-left:8px;&quot;&gt;Alimentaçao | Varchar&lt;/p&gt;&lt;p style=&quot;margin:0px;margin-left:8px;&quot;&gt;TipoCombustivel | Varchar&lt;/p&gt;&lt;p style=&quot;margin:0px;margin-left:8px;&quot;&gt;&lt;br&gt;&lt;/p&gt;&lt;p style=&quot;margin:0px;margin-left:8px;&quot;&gt;&lt;br&gt;&lt;/p&gt;&lt;p style=&quot;margin:0px;margin-left:8px;&quot;&gt;&lt;br&gt;&lt;/p&gt;" style="verticalAlign=top;align=left;overflow=fill;fontSize=12;fontFamily=Helvetica;html=1;whiteSpace=wrap;" vertex="1" parent="1">
          <mxGeometry x="-40" y="290" width="240" height="380" as="geometry" />
        </mxCell>
        <mxCell id="085ajstwrfnwcMNNs1sN-4" value="&lt;p style=&quot;margin:0px;margin-top:4px;text-align:center;text-decoration:underline;&quot;&gt;&lt;b&gt;Comentarios&lt;/b&gt;&lt;/p&gt;&lt;hr&gt;&lt;p style=&quot;margin:0px;margin-left:8px;&quot;&gt;IdMoto | INT, PK&lt;/p&gt;&lt;p style=&quot;margin:0px;margin-left:8px;&quot;&gt;NomeMoto | Varchar NOT NULL&lt;/p&gt;&lt;p style=&quot;margin:0px;margin-left:8px;&quot;&gt;MarcaMoto | Varchar NOT NULL&lt;/p&gt;&lt;p style=&quot;margin:0px;margin-left:8px;&quot;&gt;Preço | Number NOT NULL&lt;/p&gt;&lt;p style=&quot;margin:0px;margin-left:8px;&quot;&gt;Cilindradas | INT NOT NULL&lt;/p&gt;&lt;p style=&quot;margin:0px;margin-left:8px;&quot;&gt;Potencia (Gasolina) | Number&lt;/p&gt;&lt;p style=&quot;margin:0px;margin-left:8px;&quot;&gt;Potencia (Etanol) | Number&lt;/p&gt;&lt;p style=&quot;margin:0px;margin-left:8px;&quot;&gt;Torque (Gasolina) | Number&lt;/p&gt;&lt;p style=&quot;margin:0px;margin-left:8px;&quot;&gt;Torque (Etanol) | Number&lt;/p&gt;&lt;p style=&quot;margin:0px;margin-left:8px;&quot;&gt;Cilindros | INT NOT NULL&lt;/p&gt;&lt;p style=&quot;margin:0px;margin-left:8px;&quot;&gt;Alimentaçao | Varchar&lt;/p&gt;&lt;p style=&quot;margin:0px;margin-left:8px;&quot;&gt;TipoCombustivel | Varchar&lt;/p&gt;&lt;p style=&quot;margin:0px;margin-left:8px;&quot;&gt;&lt;br&gt;&lt;/p&gt;&lt;p style=&quot;margin:0px;margin-left:8px;&quot;&gt;&lt;br&gt;&lt;/p&gt;&lt;p style=&quot;margin:0px;margin-left:8px;&quot;&gt;&lt;br&gt;&lt;/p&gt;" style="verticalAlign=top;align=left;overflow=fill;fontSize=12;fontFamily=Helvetica;html=1;whiteSpace=wrap;" vertex="1" parent="1">
          <mxGeometry x="220" y="290" width="240" height="380" as="geometry" />
        </mxCell>
        <mxCell id="085ajstwrfnwcMNNs1sN-5" value="&lt;p style=&quot;margin:0px;margin-top:4px;text-align:center;text-decoration:underline;&quot;&gt;&lt;b&gt;Usuarios&lt;/b&gt;&lt;/p&gt;&lt;hr&gt;&lt;p style=&quot;margin:0px;margin-left:8px;&quot;&gt;field1 = value1&lt;br&gt;field2 = value2&lt;br&gt;field3 = value3&lt;/p&gt;" style="verticalAlign=top;align=left;overflow=fill;fontSize=12;fontFamily=Helvetica;html=1;whiteSpace=wrap;" vertex="1" parent="1">
          <mxGeometry x="150" y="760" width="160" height="90" as="geometry" />
        </mxCell>
      </root>
    </mxGraphModel>
  </diagram>
</mxfile>
